<?xml version="1.0" encoding="UTF-8" standalone="no"?>
<!DOCTYPE svg PUBLIC "-//W3C//DTD SVG 1.1//EN" "http://www.w3.org/Graphics/SVG/1.1/DTD/svg11.dtd">
<svg width="100%" height="100%" viewBox="0 0 48 48" version="1.1" xmlns="http://www.w3.org/2000/svg" xmlns:xlink="http://www.w3.org/1999/xlink" xml:space="preserve" xmlns:serif="http://www.serif.com/" style="fill-rule:evenodd;clip-rule:evenodd;stroke-linejoin:round;stroke-miterlimit:2;">
    <path d="M10.689,28.007L5.628,29.192L12.767,36.513L11.281,38.182L22.478,43.511L10.689,28.007ZM37.311,28.007L42.372,29.192L35.233,36.513L36.719,38.182L25.522,43.511L37.311,28.007ZM17.937,23.193C19.115,23.232 20.282,23.373 21.435,23.621C22.254,23.798 23.074,23.961 23.916,23.969C24.704,23.977 25.481,23.871 26.255,23.736C27.163,23.577 28.066,23.385 28.98,23.261C29.796,23.15 30.609,23.151 31.427,23.263C32.242,23.374 33.045,23.537 33.839,23.751C33.993,23.793 34.156,23.801 34.313,23.836C34.533,23.884 34.611,23.988 34.585,24.212C34.562,24.406 34.568,24.598 34.586,24.793C34.601,24.957 34.568,25.093 34.393,25.18C34.2,25.277 34.085,25.459 33.99,25.649C33.807,26.016 33.72,26.415 33.61,26.807C33.509,27.166 33.419,27.528 33.292,27.879C32.937,28.853 32.258,29.511 31.289,29.841C30.003,30.278 28.722,30.222 27.476,29.669C26.536,29.253 25.928,28.511 25.511,27.593C25.334,27.205 25.206,26.799 25.064,26.398C24.993,26.196 24.908,26.002 24.779,25.829C24.663,25.674 24.516,25.582 24.315,25.58C24.124,25.577 23.935,25.553 23.744,25.582C23.589,25.606 23.474,25.68 23.392,25.813C23.271,26.013 23.19,26.231 23.135,26.456C22.935,27.276 22.548,28 22.032,28.663C21.44,29.422 20.677,29.896 19.729,30.054C18.696,30.226 17.674,30.166 16.677,29.826C16.493,29.763 16.317,29.68 16.143,29.594C15.683,29.365 15.357,29.015 15.149,28.543C14.81,27.773 14.501,26.993 14.299,26.174C14.222,25.861 14.076,25.594 13.835,25.373C13.647,25.201 13.476,25.01 13.431,24.743C13.4,24.562 13.411,24.378 13.418,24.195C13.421,24.113 13.426,24.031 13.42,23.949C13.413,23.869 13.443,23.835 13.522,23.824C14.155,23.735 14.775,23.58 15.401,23.458C16.033,23.335 16.667,23.232 17.309,23.195C17.518,23.183 17.728,23.193 17.937,23.193L17.937,23.193ZM18.887,3.522C17.929,3.655 17.073,4.39 16.471,5.596C16.108,6.325 15.999,6.709 15.724,8.209C15.576,9.026 15.177,10.855 14.805,12.428C14.636,13.135 14.666,13.069 14.487,13.093C11.826,13.435 9.495,13.915 7.871,14.466C5.857,15.146 4.783,15.905 4.711,16.701C4.59,18.034 7.384,19.359 12.156,20.226C18.621,21.403 27.69,21.497 34.564,20.453C36.883,20.103 38.806,19.661 40.294,19.132C43.094,18.143 44.041,17 42.979,15.899C41.894,14.78 38.676,13.779 34.192,13.168C33.82,13.12 33.505,13.078 33.493,13.078C33.466,13.078 33.439,12.99 33.306,12.428C32.846,10.483 32.444,8.605 32.296,7.71C32.123,6.676 31.788,5.751 31.325,5.043C31.116,4.719 31.068,4.662 30.775,4.357C30.487,4.063 30.245,3.888 29.916,3.737C29.562,3.57 29.302,3.513 28.939,3.513C28.528,3.513 28.074,3.61 26.187,4.097C25.431,4.29 25.114,4.357 24.651,4.414C23.859,4.511 23.275,4.444 21.923,4.097C19.81,3.552 19.332,3.461 18.887,3.522Z"/>
</svg>
